<svg id="visual" viewBox="0 0 1920 100" width="1920" height="100" xmlns="http://www.w3.org/2000/svg" xmlns:xlink="http://www.w3.org/1999/xlink" version="1.1"><rect x="0" y="0" width="1920" height="100" fill="#f8fafc"></rect><path d="M0 48L16 49C32 50 64 52 96 53.3C128 54.7 160 55.3 192 55.3C224 55.3 256 54.7 288 54.5C320 54.3 352 54.7 384 53.7C416 52.7 448 50.3 480 50.5C512 50.7 544 53.3 576 56.3C608 59.3 640 62.7 672 62.7C704 62.7 736 59.3 768 58.7C800 58 832 60 864 60C896 60 928 58 960 56.2C992 54.3 1024 52.7 1056 54.5C1088 56.3 1120 61.7 1152 63.8C1184 66 1216 65 1248 63.5C1280 62 1312 60 1344 58.7C1376 57.3 1408 56.7 1440 55.2C1472 53.7 1504 51.3 1536 49.8C1568 48.3 1600 47.7 1632 49.5C1664 51.3 1696 55.7 1728 57.8C1760 60 1792 60 1824 57.3C1856 54.7 1888 49.3 1904 46.7L1920 44L1920 0L1904 0C1888 0 1856 0 1824 0C1792 0 1760 0 1728 0C1696 0 1664 0 1632 0C1600 0 1568 0 1536 0C1504 0 1472 0 1440 0C1408 0 1376 0 1344 0C1312 0 1280 0 1248 0C1216 0 1184 0 1152 0C1120 0 1088 0 1056 0C1024 0 992 0 960 0C928 0 896 0 864 0C832 0 800 0 768 0C736 0 704 0 672 0C640 0 608 0 576 0C544 0 512 0 480 0C448 0 416 0 384 0C352 0 320 0 288 0C256 0 224 0 192 0C160 0 128 0 96 0C64 0 32 0 16 0L0 0Z" fill="#f8fafc"></path><path d="M0 53L16 52C32 51 64 49 96 48.7C128 48.3 160 49.7 192 48.7C224 47.7 256 44.3 288 45C320 45.7 352 50.3 384 49.8C416 49.3 448 43.7 480 42C512 40.3 544 42.7 576 42.7C608 42.7 640 40.3 672 41C704 41.7 736 45.3 768 47.5C800 49.7 832 50.3 864 48.7C896 47 928 43 960 42.5C992 42 1024 45 1056 45.8C1088 46.7 1120 45.3 1152 45C1184 44.7 1216 45.3 1248 45.8C1280 46.3 1312 46.7 1344 45.5C1376 44.3 1408 41.7 1440 42C1472 42.3 1504 45.7 1536 49C1568 52.3 1600 55.7 1632 55.5C1664 55.3 1696 51.7 1728 48.8C1760 46 1792 44 1824 43.7C1856 43.3 1888 44.7 1904 45.3L1920 46L1920 0L1904 0C1888 0 1856 0 1824 0C1792 0 1760 0 1728 0C1696 0 1664 0 1632 0C1600 0 1568 0 1536 0C1504 0 1472 0 1440 0C1408 0 1376 0 1344 0C1312 0 1280 0 1248 0C1216 0 1184 0 1152 0C1120 0 1088 0 1056 0C1024 0 992 0 960 0C928 0 896 0 864 0C832 0 800 0 768 0C736 0 704 0 672 0C640 0 608 0 576 0C544 0 512 0 480 0C448 0 416 0 384 0C352 0 320 0 288 0C256 0 224 0 192 0C160 0 128 0 96 0C64 0 32 0 16 0L0 0Z" fill="#d2d7dc"></path><path d="M0 41L16 40.8C32 40.7 64 40.3 96 39.3C128 38.3 160 36.7 192 37.5C224 38.3 256 41.7 288 43.7C320 45.7 352 46.3 384 44.7C416 43 448 39 480 39.7C512 40.3 544 45.7 576 46.3C608 47 640 43 672 41C704 39 736 39 768 39C800 39 832 39 864 40.5C896 42 928 45 960 45.5C992 46 1024 44 1056 44.3C1088 44.7 1120 47.3 1152 47.3C1184 47.3 1216 44.7 1248 42.3C1280 40 1312 38 1344 39.5C1376 41 1408 46 1440 47.3C1472 48.7 1504 46.3 1536 43.8C1568 41.3 1600 38.7 1632 39.5C1664 40.3 1696 44.7 1728 46.5C1760 48.3 1792 47.7 1824 48C1856 48.3 1888 49.7 1904 50.3L1920 51L1920 0L1904 0C1888 0 1856 0 1824 0C1792 0 1760 0 1728 0C1696 0 1664 0 1632 0C1600 0 1568 0 1536 0C1504 0 1472 0 1440 0C1408 0 1376 0 1344 0C1312 0 1280 0 1248 0C1216 0 1184 0 1152 0C1120 0 1088 0 1056 0C1024 0 992 0 960 0C928 0 896 0 864 0C832 0 800 0 768 0C736 0 704 0 672 0C640 0 608 0 576 0C544 0 512 0 480 0C448 0 416 0 384 0C352 0 320 0 288 0C256 0 224 0 192 0C160 0 128 0 96 0C64 0 32 0 16 0L0 0Z" fill="#adb5be"></path><path d="M0 36L16 36.8C32 37.7 64 39.3 96 39.7C128 40 160 39 192 37C224 35 256 32 288 30.7C320 29.3 352 29.7 384 31.2C416 32.7 448 35.3 480 36.2C512 37 544 36 576 35.5C608 35 640 35 672 35.7C704 36.3 736 37.7 768 38.5C800 39.3 832 39.7 864 38.2C896 36.7 928 33.3 960 32.8C992 32.3 1024 34.7 1056 35.7C1088 36.7 1120 36.3 1152 37.3C1184 38.3 1216 40.7 1248 41C1280 41.3 1312 39.7 1344 37.8C1376 36 1408 34 1440 33.2C1472 32.3 1504 32.7 1536 32C1568 31.3 1600 29.7 1632 30.2C1664 30.7 1696 33.3 1728 33.2C1760 33 1792 30 1824 28.7C1856 27.3 1888 27.7 1904 27.8L1920 28L1920 0L1904 0C1888 0 1856 0 1824 0C1792 0 1760 0 1728 0C1696 0 1664 0 1632 0C1600 0 1568 0 1536 0C1504 0 1472 0 1440 0C1408 0 1376 0 1344 0C1312 0 1280 0 1248 0C1216 0 1184 0 1152 0C1120 0 1088 0 1056 0C1024 0 992 0 960 0C928 0 896 0 864 0C832 0 800 0 768 0C736 0 704 0 672 0C640 0 608 0 576 0C544 0 512 0 480 0C448 0 416 0 384 0C352 0 320 0 288 0C256 0 224 0 192 0C160 0 128 0 96 0C64 0 32 0 16 0L0 0Z" fill="#8995a0"></path><path d="M0 26L16 25C32 24 64 22 96 21.8C128 21.7 160 23.3 192 23.8C224 24.3 256 23.7 288 23.8C320 24 352 25 384 27C416 29 448 32 480 31.2C512 30.3 544 25.7 576 23.5C608 21.3 640 21.7 672 23C704 24.3 736 26.7 768 28.3C800 30 832 31 864 31.7C896 32.3 928 32.7 960 32.7C992 32.7 1024 32.3 1056 32.3C1088 32.3 1120 32.7 1152 33.2C1184 33.7 1216 34.3 1248 34.2C1280 34 1312 33 1344 31.7C1376 30.3 1408 28.7 1440 28.5C1472 28.3 1504 29.7 1536 29C1568 28.3 1600 25.7 1632 25.7C1664 25.7 1696 28.3 1728 29.2C1760 30 1792 29 1824 29.7C1856 30.3 1888 32.7 1904 33.8L1920 35L1920 0L1904 0C1888 0 1856 0 1824 0C1792 0 1760 0 1728 0C1696 0 1664 0 1632 0C1600 0 1568 0 1536 0C1504 0 1472 0 1440 0C1408 0 1376 0 1344 0C1312 0 1280 0 1248 0C1216 0 1184 0 1152 0C1120 0 1088 0 1056 0C1024 0 992 0 960 0C928 0 896 0 864 0C832 0 800 0 768 0C736 0 704 0 672 0C640 0 608 0 576 0C544 0 512 0 480 0C448 0 416 0 384 0C352 0 320 0 288 0C256 0 224 0 192 0C160 0 128 0 96 0C64 0 32 0 16 0L0 0Z" fill="#677683"></path><path d="M0 16L16 17.2C32 18.3 64 20.7 96 22.2C128 23.7 160 24.3 192 24.5C224 24.7 256 24.3 288 23.8C320 23.3 352 22.7 384 22.5C416 22.3 448 22.7 480 22.5C512 22.3 544 21.7 576 22C608 22.3 640 23.7 672 24.7C704 25.7 736 26.3 768 26.5C800 26.7 832 26.3 864 26.2C896 26 928 26 960 24.3C992 22.7 1024 19.3 1056 18.3C1088 17.3 1120 18.7 1152 20.5C1184 22.3 1216 24.7 1248 24.2C1280 23.7 1312 20.3 1344 19.8C1376 19.3 1408 21.7 1440 22.2C1472 22.7 1504 21.3 1536 21.8C1568 22.3 1600 24.7 1632 25.2C1664 25.7 1696 24.3 1728 24.3C1760 24.3 1792 25.7 1824 26.3C1856 27 1888 27 1904 27L1920 27L1920 0L1904 0C1888 0 1856 0 1824 0C1792 0 1760 0 1728 0C1696 0 1664 0 1632 0C1600 0 1568 0 1536 0C1504 0 1472 0 1440 0C1408 0 1376 0 1344 0C1312 0 1280 0 1248 0C1216 0 1184 0 1152 0C1120 0 1088 0 1056 0C1024 0 992 0 960 0C928 0 896 0 864 0C832 0 800 0 768 0C736 0 704 0 672 0C640 0 608 0 576 0C544 0 512 0 480 0C448 0 416 0 384 0C352 0 320 0 288 0C256 0 224 0 192 0C160 0 128 0 96 0C64 0 32 0 16 0L0 0Z" fill="#465867"></path><path d="M0 13L16 13.2C32 13.3 64 13.7 96 14.5C128 15.3 160 16.7 192 16.8C224 17 256 16 288 16C320 16 352 17 384 17C416 17 448 16 480 15.5C512 15 544 15 576 14.2C608 13.3 640 11.7 672 12.5C704 13.3 736 16.7 768 17.3C800 18 832 16 864 14.3C896 12.7 928 11.3 960 11.5C992 11.7 1024 13.3 1056 13.7C1088 14 1120 13 1152 13C1184 13 1216 14 1248 13.8C1280 13.7 1312 12.3 1344 12.2C1376 12 1408 13 1440 13.2C1472 13.3 1504 12.7 1536 13C1568 13.3 1600 14.7 1632 15.5C1664 16.3 1696 16.7 1728 16.2C1760 15.7 1792 14.3 1824 14.7C1856 15 1888 17 1904 18L1920 19L1920 0L1904 0C1888 0 1856 0 1824 0C1792 0 1760 0 1728 0C1696 0 1664 0 1632 0C1600 0 1568 0 1536 0C1504 0 1472 0 1440 0C1408 0 1376 0 1344 0C1312 0 1280 0 1248 0C1216 0 1184 0 1152 0C1120 0 1088 0 1056 0C1024 0 992 0 960 0C928 0 896 0 864 0C832 0 800 0 768 0C736 0 704 0 672 0C640 0 608 0 576 0C544 0 512 0 480 0C448 0 416 0 384 0C352 0 320 0 288 0C256 0 224 0 192 0C160 0 128 0 96 0C64 0 32 0 16 0L0 0Z" fill="#253c4c"></path><path d="M0 6L16 6.3C32 6.7 64 7.3 96 7C128 6.7 160 5.3 192 4.5C224 3.7 256 3.3 288 4C320 4.7 352 6.3 384 6.8C416 7.3 448 6.7 480 7.3C512 8 544 10 576 10.2C608 10.3 640 8.7 672 8.7C704 8.7 736 10.3 768 11.2C800 12 832 12 864 12C896 12 928 12 960 10.7C992 9.3 1024 6.7 1056 6.5C1088 6.3 1120 8.7 1152 9.3C1184 10 1216 9 1248 8C1280 7 1312 6 1344 5.8C1376 5.7 1408 6.3 1440 6.3C1472 6.3 1504 5.7 1536 5.3C1568 5 1600 5 1632 5.3C1664 5.7 1696 6.3 1728 7C1760 7.7 1792 8.3 1824 9.2C1856 10 1888 11 1904 11.5L1920 12L1920 0L1904 0C1888 0 1856 0 1824 0C1792 0 1760 0 1728 0C1696 0 1664 0 1632 0C1600 0 1568 0 1536 0C1504 0 1472 0 1440 0C1408 0 1376 0 1344 0C1312 0 1280 0 1248 0C1216 0 1184 0 1152 0C1120 0 1088 0 1056 0C1024 0 992 0 960 0C928 0 896 0 864 0C832 0 800 0 768 0C736 0 704 0 672 0C640 0 608 0 576 0C544 0 512 0 480 0C448 0 416 0 384 0C352 0 320 0 288 0C256 0 224 0 192 0C160 0 128 0 96 0C64 0 32 0 16 0L0 0Z" fill="#002233"></path></svg>