<svg id="visual" viewBox="0 0 1920 100" width="1920" height="100" xmlns="http://www.w3.org/2000/svg" xmlns:xlink="http://www.w3.org/1999/xlink" version="1.1"><rect x="0" y="0" width="1920" height="100" fill="#f8fafc"></rect><path d="M0 56L45.7 57.2C91.3 58.3 182.7 60.7 274.2 61.7C365.7 62.7 457.3 62.3 548.8 59.7C640.3 57 731.7 52 823 50C914.3 48 1005.7 49 1097 51C1188.3 53 1279.7 56 1371.2 57.8C1462.7 59.7 1554.3 60.3 1645.8 61.2C1737.3 62 1828.7 63 1874.3 63.5L1920 64L1920 0L1874.3 0C1828.7 0 1737.3 0 1645.8 0C1554.3 0 1462.7 0 1371.2 0C1279.7 0 1188.3 0 1097 0C1005.7 0 914.3 0 823 0C731.7 0 640.3 0 548.8 0C457.3 0 365.7 0 274.2 0C182.7 0 91.3 0 45.7 0L0 0Z" fill="#f8fafc"></path><path d="M0 39L45.7 39.2C91.3 39.3 182.7 39.7 274.2 38.5C365.7 37.3 457.3 34.7 548.8 34.8C640.3 35 731.7 38 823 39C914.3 40 1005.7 39 1097 40.2C1188.3 41.3 1279.7 44.7 1371.2 46C1462.7 47.3 1554.3 46.7 1645.8 44C1737.3 41.3 1828.7 36.7 1874.3 34.3L1920 32L1920 0L1874.3 0C1828.7 0 1737.3 0 1645.8 0C1554.3 0 1462.7 0 1371.2 0C1279.7 0 1188.3 0 1097 0C1005.7 0 914.3 0 823 0C731.7 0 640.3 0 548.8 0C457.3 0 365.7 0 274.2 0C182.7 0 91.3 0 45.7 0L0 0Z" fill="#b6bec5"></path><path d="M0 34L45.7 35.2C91.3 36.3 182.7 38.7 274.2 39C365.7 39.3 457.3 37.7 548.8 34.8C640.3 32 731.7 28 823 27.2C914.3 26.3 1005.7 28.7 1097 29C1188.3 29.3 1279.7 27.7 1371.2 26.3C1462.7 25 1554.3 24 1645.8 24.5C1737.3 25 1828.7 27 1874.3 28L1920 29L1920 0L1874.3 0C1828.7 0 1737.3 0 1645.8 0C1554.3 0 1462.7 0 1371.2 0C1279.7 0 1188.3 0 1097 0C1005.7 0 914.3 0 823 0C731.7 0 640.3 0 548.8 0C457.3 0 365.7 0 274.2 0C182.7 0 91.3 0 45.7 0L0 0Z" fill="#788591"></path><path d="M0 24L45.7 23C91.3 22 182.7 20 274.2 19.7C365.7 19.3 457.3 20.7 548.8 21C640.3 21.3 731.7 20.7 823 21.5C914.3 22.3 1005.7 24.7 1097 25.8C1188.3 27 1279.7 27 1371.2 26.2C1462.7 25.3 1554.3 23.7 1645.8 23.3C1737.3 23 1828.7 24 1874.3 24.5L1920 25L1920 0L1874.3 0C1828.7 0 1737.3 0 1645.8 0C1554.3 0 1462.7 0 1371.2 0C1279.7 0 1188.3 0 1097 0C1005.7 0 914.3 0 823 0C731.7 0 640.3 0 548.8 0C457.3 0 365.7 0 274.2 0C182.7 0 91.3 0 45.7 0L0 0Z" fill="#3d5160"></path><path d="M0 11L45.7 12.3C91.3 13.7 182.7 16.3 274.2 17.2C365.7 18 457.3 17 548.8 15.8C640.3 14.7 731.7 13.3 823 11.8C914.3 10.3 1005.7 8.7 1097 9C1188.3 9.3 1279.7 11.7 1371.2 11.5C1462.7 11.3 1554.3 8.7 1645.8 9C1737.3 9.3 1828.7 12.7 1874.3 14.3L1920 16L1920 0L1874.3 0C1828.7 0 1737.3 0 1645.8 0C1554.3 0 1462.7 0 1371.2 0C1279.7 0 1188.3 0 1097 0C1005.7 0 914.3 0 823 0C731.7 0 640.3 0 548.8 0C457.3 0 365.7 0 274.2 0C182.7 0 91.3 0 45.7 0L0 0Z" fill="#002233"></path></svg>