<svg id="visual" viewBox="0 0 1920 100" width="1920" height="100" xmlns="http://www.w3.org/2000/svg" xmlns:xlink="http://www.w3.org/1999/xlink" version="1.1"><rect x="0" y="0" width="1920" height="100" fill="#f8fafc"></rect><path d="M0 34L29.2 35.8C58.3 37.7 116.7 41.3 174.8 44.5C233 47.7 291 50.3 349.2 52C407.3 53.7 465.7 54.3 523.8 52.2C582 50 640 45 698.2 44.2C756.3 43.3 814.7 46.7 872.8 47.8C931 49 989 48 1047.2 46.5C1105.3 45 1163.7 43 1221.8 42C1280 41 1338 41 1396.2 42.7C1454.3 44.3 1512.7 47.7 1570.8 51C1629 54.3 1687 57.7 1745.2 56.5C1803.3 55.3 1861.7 49.7 1890.8 46.8L1920 44L1920 0L1890.8 0C1861.7 0 1803.3 0 1745.2 0C1687 0 1629 0 1570.8 0C1512.7 0 1454.3 0 1396.2 0C1338 0 1280 0 1221.8 0C1163.7 0 1105.3 0 1047.2 0C989 0 931 0 872.8 0C814.7 0 756.3 0 698.2 0C640 0 582 0 523.8 0C465.7 0 407.3 0 349.2 0C291 0 233 0 174.8 0C116.7 0 58.3 0 29.2 0L0 0Z" fill="#002233" stroke-linecap="round" stroke-linejoin="miter"></path></svg>