<svg id="visual" viewBox="0 0 1920 100" width="1920" height="100" xmlns="http://www.w3.org/2000/svg" xmlns:xlink="http://www.w3.org/1999/xlink" version="1.1"><rect x="0" y="0" width="1920" height="100" fill="#002233"></rect><path d="M0 7L26.7 15.7C53.3 24.3 106.7 41.7 160 50.3C213.3 59 266.7 59 320 51.3C373.3 43.7 426.7 28.3 480 24.2C533.3 20 586.7 27 640 40.2C693.3 53.3 746.7 72.7 800 75.2C853.3 77.7 906.7 63.3 960 50C1013.3 36.7 1066.7 24.3 1120 20C1173.3 15.7 1226.7 19.3 1280 24.5C1333.3 29.7 1386.7 36.3 1440 45.8C1493.3 55.3 1546.7 67.7 1600 64C1653.3 60.3 1706.7 40.7 1760 33.8C1813.3 27 1866.7 33 1893.3 36L1920 39L1920 101L1893.3 101C1866.7 101 1813.3 101 1760 101C1706.7 101 1653.3 101 1600 101C1546.7 101 1493.3 101 1440 101C1386.7 101 1333.3 101 1280 101C1226.7 101 1173.3 101 1120 101C1066.7 101 1013.3 101 960 101C906.7 101 853.3 101 800 101C746.7 101 693.3 101 640 101C586.7 101 533.3 101 480 101C426.7 101 373.3 101 320 101C266.7 101 213.3 101 160 101C106.7 101 53.3 101 26.7 101L0 101Z" fill="#cbd5e1" stroke-linecap="round" stroke-linejoin="miter"></path></svg>