<svg id="visual" viewBox="0 0 1920 100" width="1920" height="100" xmlns="http://www.w3.org/2000/svg" xmlns:xlink="http://www.w3.org/1999/xlink" version="1.1"><rect x="0" y="0" width="1920" height="100" fill="#f8fafc"></rect><path d="M0 52L40 43.5C80 35 160 18 240 24.3C320 30.7 400 60.3 480 74.5C560 88.7 640 87.3 720 75.2C800 63 880 40 960 31.3C1040 22.7 1120 28.3 1200 25.5C1280 22.7 1360 11.3 1440 14.5C1520 17.7 1600 35.3 1680 42.7C1760 50 1840 47 1880 45.5L1920 44L1920 0L1880 0C1840 0 1760 0 1680 0C1600 0 1520 0 1440 0C1360 0 1280 0 1200 0C1120 0 1040 0 960 0C880 0 800 0 720 0C640 0 560 0 480 0C400 0 320 0 240 0C160 0 80 0 40 0L0 0Z" fill="#002233" stroke-linecap="round" stroke-linejoin="miter"></path></svg>