<svg id="visual" viewBox="0 0 1920 100" width="1920" height="100" xmlns="http://www.w3.org/2000/svg" xmlns:xlink="http://www.w3.org/1999/xlink" version="1.1"><rect x="0" y="0" width="1920" height="100" fill="#f8fafc"></rect><path d="M0 36L40 42.2C80 48.3 160 60.7 240 59.8C320 59 400 45 480 48.3C560 51.7 640 72.3 720 76.5C800 80.7 880 68.3 960 55.2C1040 42 1120 28 1200 29C1280 30 1360 46 1440 53.5C1520 61 1600 60 1680 50.5C1760 41 1840 23 1880 14L1920 5L1920 0L1880 0C1840 0 1760 0 1680 0C1600 0 1520 0 1440 0C1360 0 1280 0 1200 0C1120 0 1040 0 960 0C880 0 800 0 720 0C640 0 560 0 480 0C400 0 320 0 240 0C160 0 80 0 40 0L0 0Z" fill="#002233" stroke-linecap="round" stroke-linejoin="miter"></path></svg>